<svg width="98" height="98" viewBox="0 0 98 98" fill="none" xmlns="http://www.w3.org/2000/svg">
<path d="M91.4322 51.6716C91.4629 51.2049 91.5663 50.7918 91.7425 50.432C91.9186 50.0723 92.1629 49.7901 92.4752 49.5853C92.7871 49.3867 93.153 49.295 93.5728 49.3104L93.4639 50.9648C93.2255 50.9735 93.0379 51.0434 92.9012 51.1744C92.7706 51.3059 92.6979 51.4837 92.6831 51.7079C92.668 51.9382 92.7076 52.1234 92.8021 52.2635C92.9026 52.404 93.047 52.4804 93.2353 52.4928C93.3932 52.5031 93.5273 52.4571 93.6377 52.3548C93.7478 52.2585 93.8414 52.1338 93.9185 51.9806C93.9953 51.8335 94.0856 51.6203 94.1893 51.341C94.344 50.9373 94.4937 50.6093 94.6384 50.3571C94.783 50.1048 94.986 49.8929 95.2474 49.7214C95.5088 49.5498 95.8398 49.4772 96.2406 49.5035C96.8358 49.5425 97.2862 49.7881 97.5919 50.2403C97.9036 50.6928 98.0368 51.2646 97.9913 51.9554C97.945 52.6584 97.7377 53.2139 97.3693 53.6219C97.007 54.0303 96.5242 54.23 95.921 54.2209L96.0317 52.5391C96.239 52.5405 96.4049 52.4753 96.5294 52.3435C96.6601 52.2121 96.7326 52.0373 96.7469 51.8191C96.7593 51.6312 96.7177 51.4763 96.622 51.3544C96.5324 51.2329 96.3935 51.166 96.2052 51.1536C95.9987 51.1401 95.8314 51.2265 95.7033 51.4129C95.5751 51.5993 95.4307 51.8941 95.27 52.2975C95.1032 52.7004 94.9476 53.025 94.8034 53.2711C94.6587 53.5234 94.4587 53.7355 94.2034 53.9074C93.9481 54.0794 93.6292 54.1528 93.2466 54.1277C92.8822 54.1039 92.5574 53.9882 92.2722 53.7808C91.9866 53.5795 91.7673 53.2974 91.6144 52.9343C91.4614 52.5713 91.4006 52.1504 91.4322 51.6716Z" fill="#3F415A"/>
<path d="M94.482 55.3998C95.1003 55.5347 95.621 55.7881 96.0441 56.1602C96.4732 56.5335 96.7695 56.9867 96.9331 57.5197C97.1013 58.06 97.1192 58.6327 96.9866 59.2379C96.8242 59.9796 96.4889 60.5716 95.9808 61.0141C95.4728 61.4566 94.8603 61.6929 94.1436 61.723L94.51 60.0499C94.7989 59.9823 95.0371 59.8478 95.2245 59.6462C95.4107 59.4506 95.5356 59.2074 95.5993 58.9166C95.7019 58.4479 95.6216 58.0325 95.3583 57.6704C95.0949 57.3084 94.6898 57.0677 94.1428 56.9484C93.5958 56.8291 93.1269 56.8791 92.7363 57.0985C92.3456 57.3179 92.0989 57.662 91.9962 58.1307C91.9325 58.4214 91.9444 58.6945 92.0318 58.9497C92.1178 59.211 92.278 59.4324 92.5123 59.6141L92.1458 61.2873C91.507 60.9614 91.0493 60.4917 90.7725 59.878C90.5017 59.2657 90.4475 58.5886 90.61 57.847C90.7425 57.2418 90.9952 56.7281 91.368 56.3058C91.7455 55.8908 92.2043 55.6023 92.7444 55.4404C93.2844 55.2784 93.8636 55.2649 94.482 55.3998Z" fill="#3F415A"/>
<path d="M88.479 64.9733L91.2151 64.5966L91.3492 64.2479L89.0907 63.3828L89.65 61.9285L95.633 64.22L94.6942 66.661C94.5132 67.1316 94.2771 67.4998 93.9858 67.7656C93.6924 68.037 93.3691 68.1994 93.0161 68.2529C92.6688 68.3085 92.319 68.2689 91.9667 68.1339C91.569 67.9816 91.2575 67.7322 91.0322 67.3857C90.8048 67.0449 90.7097 66.6311 90.7469 66.1445L87.8476 66.6148L88.479 64.9733ZM92.3804 64.6429L92.0337 65.5444C91.9312 65.8109 91.9202 66.0344 92.0008 66.2149C92.0791 66.401 92.2376 66.5398 92.4762 66.6312C92.7035 66.7182 92.9087 66.7187 93.0917 66.6327C93.2725 66.5523 93.4142 66.3789 93.5167 66.1124L93.8634 65.2109L92.3804 64.6429Z" fill="#3F415A"/>
<path d="M86.0973 69.7492C86.3942 69.2259 86.7888 68.8138 87.2813 68.5128C87.7708 68.217 88.3061 68.0624 88.8873 68.0488C89.4708 68.0434 90.0353 68.1949 90.5808 68.5031C91.1263 68.8113 91.5443 69.2149 91.8346 69.7139C92.122 70.2183 92.2645 70.7559 92.2623 71.327C92.257 71.9033 92.106 72.4531 91.8091 72.9763C91.5123 73.4995 91.1191 73.909 90.6296 74.2047C90.1371 74.5058 89.6033 74.6578 89.0281 74.6608C88.4499 74.6692 87.888 74.5192 87.3426 74.211C86.7971 73.9028 86.3765 73.4977 86.0808 72.9957C85.7905 72.4966 85.6464 71.9616 85.6487 71.3905C85.6509 70.8195 85.8005 70.2724 86.0973 69.7492ZM87.3366 70.4493C87.0847 70.8933 87.0321 71.3312 87.1788 71.763C87.3224 72.2001 87.6379 72.5563 88.1251 72.8316C88.6177 73.1099 89.086 73.1965 89.5302 73.0916C89.9767 72.9949 90.3259 72.7245 90.5778 72.2806C90.8327 71.8314 90.8909 71.3897 90.7525 70.9556C90.6112 70.5267 90.2916 70.1717 89.7938 69.8904C89.3012 69.6121 88.8317 69.5213 88.3852 69.618C87.941 69.723 87.5915 70.0001 87.3366 70.4493Z" fill="#3F415A"/>
<path d="M83.9842 75.2861L82.7514 76.9141L81.79 76.1891L83.964 73.3182L89.0768 77.174L88.1356 78.4168L83.9842 75.2861Z" fill="#3F415A"/>
<path d="M81.1481 78.6736L79.7556 80.1681L78.8732 79.3492L81.3286 76.7139L86.0218 81.0688L84.9588 82.2097L81.1481 78.6736Z" fill="#3F415A"/>
<path d="M67.7884 87.0867C68.2091 86.8807 68.6196 86.7644 69.0199 86.7376C69.4202 86.7107 69.7872 86.7815 70.1206 86.9497C70.4487 87.1206 70.7106 87.3915 70.9064 87.7624L69.4147 88.4925C69.2884 88.2906 69.1342 88.1631 68.9522 88.1101C68.773 88.0625 68.5822 88.0882 68.3801 88.1872C68.1724 88.2888 68.0313 88.4154 67.9566 88.5669C67.8847 88.7239 67.8902 88.8869 67.9733 89.056C68.043 89.1977 68.1498 89.2909 68.2937 89.3355C68.4321 89.3827 68.5871 89.4016 68.7587 89.392C68.9247 89.3851 69.155 89.357 69.4493 89.3076C69.8771 89.2403 70.2367 89.2064 70.5279 89.2059C70.8191 89.2054 71.1044 89.2755 71.3837 89.4162C71.6629 89.5568 71.891 89.8071 72.0679 90.167C72.3305 90.7014 72.3415 91.2134 72.101 91.7032C71.8631 92.1985 71.4327 92.5985 70.8098 92.9034C70.176 93.2137 69.59 93.311 69.052 93.1955C68.5166 93.0855 68.1026 92.7673 67.81 92.2408L69.3263 91.4987C69.4284 91.6787 69.5677 91.7898 69.7443 91.8319C69.9235 91.8794 70.1115 91.8551 70.3082 91.7588C70.4776 91.6759 70.5915 91.5627 70.6497 91.4192C70.7107 91.2811 70.6996 91.1276 70.6165 90.9585C70.5254 90.7731 70.367 90.6714 70.1412 90.6534C69.9154 90.6354 69.5873 90.6573 69.1567 90.7192C68.7235 90.7756 68.3641 90.8028 68.0783 90.8006C67.787 90.8011 67.5031 90.7337 67.2266 90.5985C66.95 90.4633 66.7273 90.2239 66.5584 89.8804C66.3976 89.5532 66.3363 89.2146 66.3743 88.8645C66.4069 88.517 66.5429 88.1867 66.7821 87.8735C67.0213 87.5602 67.3567 87.298 67.7884 87.0867Z" fill="#3F415A"/>
<path d="M66.0524 91.5779C66.2432 92.1802 66.2824 92.757 66.1699 93.3085C66.0592 93.8657 65.8131 94.3479 65.4314 94.755C65.0458 95.1697 64.5571 95.4704 63.9652 95.6572C63.2398 95.8861 62.5584 95.8909 61.9208 95.6717C61.2833 95.4525 60.7729 95.0403 60.3896 94.4351L62.026 93.9187C62.2286 94.135 62.4641 94.2741 62.7326 94.3358C62.9954 94.3994 63.2689 94.3864 63.5532 94.2967C64.0116 94.152 64.3325 93.8756 64.516 93.4673C64.6994 93.0591 64.7067 92.5886 64.5378 92.0559C64.369 91.5231 64.092 91.1424 63.7068 90.9136C63.3215 90.6848 62.8997 90.6428 62.4412 90.7874C62.1569 90.8772 61.9256 91.0234 61.7473 91.2262C61.5632 91.4308 61.4506 91.6797 61.4095 91.973L59.7731 92.4893C59.738 91.7743 59.9181 91.1441 60.3134 90.599C60.7106 90.0596 61.2719 89.6755 61.9972 89.4466C62.5891 89.2598 63.1613 89.2225 63.7139 89.3348C64.2625 89.4547 64.7417 89.708 65.1515 90.0946C65.5612 90.4813 65.8615 90.9757 66.0524 91.5779Z" fill="#3F415A"/>
<path d="M54.7464 91.1375L56.4346 93.3191L56.8045 93.2618L56.4333 90.8762L57.9759 90.6372L58.9591 96.9568L56.3701 97.3579C55.8709 97.4352 55.4334 97.4139 55.0575 97.2939C54.6756 97.1748 54.3737 96.9758 54.1516 96.6967C53.9306 96.4236 53.7911 96.1011 53.7332 95.729C53.6678 95.3089 53.7297 94.9151 53.9189 94.5478C54.1021 94.1814 54.4145 93.8933 54.8561 93.6835L53.0054 91.4073L54.7464 91.1375ZM56.9739 94.3511L56.0177 94.4992C55.7351 94.543 55.5353 94.6446 55.4185 94.8041C55.2956 94.9645 55.2538 95.1707 55.293 95.4228C55.3304 95.6628 55.4319 95.8407 55.5977 95.9564C55.7575 96.073 55.9788 96.1094 56.2614 96.0656L57.2176 95.9174L56.9739 94.3511Z" fill="#3F415A"/>
<path d="M49.3581 91.4499C49.9606 91.4453 50.5155 91.5807 51.0228 91.8562C51.524 92.1317 51.9256 92.5173 52.2277 93.013C52.5237 93.5148 52.6741 94.0785 52.679 94.7041C52.6838 95.3296 52.5421 95.8925 52.2538 96.3928C51.9595 96.8931 51.5639 97.2848 51.067 97.568C50.564 97.8513 50.0113 97.9952 49.4088 97.9999C48.8063 98.0045 48.2545 97.8691 47.7533 97.5936C47.246 97.3181 46.8474 96.9324 46.5575 96.4366C46.2616 95.9409 46.1112 95.3802 46.1063 94.7547C46.1015 94.1292 46.2432 93.5632 46.5314 93.0569C46.8197 92.5566 47.2122 92.1649 47.7091 91.8817C48.206 91.5985 48.7556 91.4545 49.3581 91.4499ZM49.3691 92.871C48.8579 92.875 48.4515 93.0482 48.1498 93.3906C47.8421 93.7331 47.6904 94.1837 47.6947 94.7425C47.6991 95.3073 47.8577 95.7555 48.1707 96.0871C48.4776 96.4249 48.8867 96.5918 49.3979 96.5879C49.9152 96.5839 50.3277 96.4137 50.6355 96.0773C50.9372 95.7409 51.0859 95.2873 51.0814 94.7164C51.0771 94.1516 50.9214 93.7003 50.6145 93.3625C50.3015 93.0309 49.8864 92.8671 49.3691 92.871Z" fill="#3F415A"/>
<path d="M43.3209 92.3575L41.2935 92.0909L41.4509 90.8987L45.026 91.3688L44.1889 97.7093L42.6412 97.5058L43.3209 92.3575Z" fill="#3F415A"/>
<path d="M39.0121 91.5826L37.0213 91.1165L37.2965 89.9457L40.8071 90.7676L39.3434 96.9939L37.8236 96.6381L39.0121 91.5826Z" fill="#3F415A"/>
<path d="M25.1094 84.1459C25.4963 84.4098 25.8 84.709 26.0206 85.0434C26.2413 85.3778 26.3604 85.7313 26.378 86.1038C26.3905 86.4728 26.2833 86.8338 26.0564 87.1866L24.6848 86.2509C24.7987 86.0416 24.8339 85.8449 24.7904 85.6608C24.7436 85.4817 24.6272 85.3287 24.4413 85.2019C24.2504 85.0717 24.0705 85.0115 23.9015 85.0213C23.7292 85.0361 23.5898 85.1213 23.4833 85.2767C23.394 85.4071 23.3654 85.5457 23.3974 85.6926C23.4244 85.8361 23.4844 85.98 23.5772 86.1243C23.6651 86.2651 23.803 86.4512 23.991 86.6825C24.2606 87.0208 24.4673 87.3164 24.6112 87.569C24.7551 87.8217 24.8345 88.104 24.8495 88.4158C24.8644 88.7276 24.7585 89.049 24.5318 89.3799C24.1952 89.8712 23.7541 90.1331 23.2085 90.1655C22.6595 90.2029 22.0986 90.0263 21.5258 89.6355C20.943 89.2379 20.5694 88.7771 20.405 88.253C20.2372 87.7338 20.3108 87.2175 20.6257 86.704L22.0199 87.6552C21.9131 87.8325 21.8849 88.0082 21.9352 88.1823C21.9821 88.3614 22.096 88.5126 22.2768 88.636C22.4326 88.7423 22.5874 88.7854 22.7412 88.7653C22.8916 88.7502 23.0201 88.6649 23.1266 88.5095C23.2433 88.339 23.254 88.1513 23.1584 87.9463C23.0629 87.7414 22.8821 87.4672 22.616 87.1239C22.3534 86.7755 22.1526 86.4767 22.0137 86.2274C21.8698 85.9747 21.7887 85.695 21.7703 85.3882C21.752 85.0814 21.851 84.77 22.0673 84.4542C22.2734 84.1533 22.5385 83.9332 22.8625 83.7938C23.1815 83.6509 23.5366 83.6062 23.9276 83.6596C24.3186 83.713 24.7125 83.8751 25.1094 84.1459Z" fill="#3F415A"/>
<path d="M20.3354 84.8568C19.9044 85.3193 19.4207 85.6377 18.8845 85.8119C18.3441 85.9905 17.8024 86.0144 17.2593 85.8837C16.7077 85.7533 16.2046 85.4772 15.75 85.0554C15.1928 84.5384 14.8527 83.9491 14.7296 83.2875C14.6064 82.6258 14.7142 81.9795 15.053 81.3484L16.3098 82.5146C16.2211 82.7972 16.2159 83.0702 16.2944 83.3338C16.3685 83.5933 16.5147 83.8243 16.7331 84.027C17.0852 84.3537 17.4844 84.4961 17.9307 84.4541C18.377 84.4121 18.7908 84.1865 19.1721 83.7774C19.5534 83.3682 19.7488 82.9399 19.7583 82.4927C19.7679 82.0454 19.5966 81.6584 19.2445 81.3317C19.0261 81.129 18.7846 81.0003 18.5199 80.9454C18.2508 80.8864 17.9782 80.9113 17.7023 81.0202L16.4454 79.8539C17.0516 79.4709 17.6898 79.3167 18.3599 79.3913C19.026 79.4702 19.6376 79.7682 20.1947 80.2852C20.6493 80.707 20.9638 81.1855 21.1384 81.7206C21.3043 82.2561 21.3197 82.797 21.1845 83.3434C21.0494 83.8897 20.7664 84.3942 20.3354 84.8568Z" fill="#3F415A"/>
<path d="M15.13 74.8358L14.0683 77.3804L14.3015 77.6725L16.1937 76.1683L17.1663 77.3868L12.1538 81.3715L10.5213 79.3265C10.2066 78.9322 10.0083 78.5424 9.9264 78.1572C9.84072 77.7671 9.86429 77.4068 9.99709 77.076C10.1251 76.749 10.3367 76.4682 10.6319 76.2336C10.9651 75.9687 11.3384 75.8272 11.7519 75.8091C12.1616 75.7863 12.5672 75.9142 12.9687 76.1929L14.0322 73.4606L15.13 74.8358ZM13.4375 78.3594L12.8346 77.604C12.6563 77.3808 12.4689 77.258 12.2722 77.2358C12.0717 77.2088 11.8715 77.2748 11.6715 77.4337C11.4811 77.5851 11.3767 77.7613 11.3582 77.9624C11.3359 78.1587 11.4139 78.3684 11.5921 78.5917L12.1951 79.347L13.4375 78.3594Z" fill="#3F415A"/>
<path d="M12.1876 70.3283C12.4883 70.8493 12.6434 71.3979 12.6529 71.9742C12.6593 72.5452 12.5208 73.0839 12.2371 73.5903C11.9452 74.0946 11.5276 74.5028 10.9844 74.815C10.4412 75.1272 9.88051 75.2812 9.30227 75.2772C8.72098 75.2678 8.18451 75.1171 7.69285 74.825C7.19815 74.5276 6.80045 74.1184 6.49975 73.5973C6.19905 73.0763 6.04547 72.5303 6.039 71.9593C6.02949 71.383 6.16959 70.8469 6.45928 70.351C6.74594 69.8499 7.16087 69.4432 7.70408 69.131C8.24728 68.8188 8.81064 68.6632 9.39417 68.6642C9.97241 68.6683 10.5074 68.8164 10.999 69.1085C11.4907 69.4007 11.8869 69.8072 12.1876 70.3283ZM10.9535 71.0376C10.6984 70.5955 10.3472 70.3277 9.89998 70.2343C9.44974 70.1356 8.98202 70.2257 8.49683 70.5046C8.00637 70.7865 7.69356 71.145 7.5584 71.5801C7.41494 72.013 7.47078 72.4505 7.72591 72.8926C7.98409 73.3399 8.33566 73.6145 8.78063 73.7162C9.22256 73.8126 9.69139 73.7184 10.1871 73.4334C10.6776 73.1515 10.9946 72.7942 11.138 72.3613C11.2732 71.9261 11.2117 71.4849 10.9535 71.0376Z" fill="#3F415A"/>
<path d="M8.47956 65.7028L7.70414 63.8146L8.81916 63.3585L10.1865 66.6883L4.25665 69.1134L3.6647 67.6719L8.47956 65.7028Z" fill="#3F415A"/>
<path d="M7.03875 61.6759L6.45176 59.7212L7.60606 59.376L8.64116 62.823L2.50236 64.6588L2.05425 63.1666L7.03875 61.6759Z" fill="#3F415A"/>
<path d="M6.5671 45.6757C6.52919 46.1418 6.41938 46.5534 6.2377 46.9104C6.05601 47.2673 5.80744 47.5458 5.49199 47.7457C5.17702 47.9395 4.80977 48.0255 4.39023 48.0037L4.52466 46.3511C4.76321 46.3461 4.95184 46.2791 5.09055 46.1502C5.22319 46.0208 5.29862 45.8441 5.31684 45.6201C5.33556 45.3901 5.29877 45.2043 5.20648 45.0628C5.10812 44.9208 4.96492 44.8421 4.77688 44.8269C4.61916 44.8141 4.48431 44.858 4.37232 44.9587C4.26083 45.0532 4.16532 45.1765 4.08579 45.3285C4.00675 45.4744 3.9132 45.6862 3.80514 45.9638C3.64427 46.3651 3.48955 46.6908 3.34099 46.9408C3.19243 47.1907 2.98617 47.3995 2.72219 47.567C2.45822 47.7345 2.12606 47.8021 1.7257 47.7696C1.13124 47.7215 0.684667 47.469 0.385998 47.0121C0.081263 46.5548 -0.0430369 45.9811 0.0130981 45.291C0.070218 44.5888 0.286107 44.0366 0.660764 43.6343C1.02936 43.2315 1.51515 43.0393 2.11815 43.0577L1.9815 44.7376C1.77427 44.733 1.60737 44.7956 1.48079 44.9255C1.34814 45.0549 1.27296 45.2286 1.25523 45.4465C1.23997 45.6341 1.27922 45.7897 1.37298 45.913C1.46068 46.0359 1.59856 46.105 1.7866 46.1202C1.99285 46.1369 2.16147 46.0531 2.29248 45.8687C2.4235 45.6843 2.57247 45.3917 2.73941 44.9909C2.91241 44.5906 3.07294 44.2684 3.22101 44.0245C3.36957 43.7745 3.5728 43.5655 3.83071 43.3975C4.08861 43.2295 4.40864 43.161 4.7908 43.192C5.15476 43.2214 5.47773 43.342 5.7597 43.5538C6.04216 43.7595 6.25707 44.045 6.40442 44.4103C6.55177 44.7757 6.606 45.1975 6.5671 45.6757Z" fill="#3F415A"/>
<path d="M3.56879 41.9336C2.95258 41.7894 2.43578 41.528 2.01841 41.1496C1.5951 40.7698 1.30573 40.3121 1.15031 39.7767C0.990349 39.2339 0.981261 38.661 1.12305 38.0579C1.2968 37.3188 1.64106 36.7319 2.15583 36.2972C2.6706 35.8625 3.28657 35.6355 4.00373 35.6163L3.61174 37.2837C3.32184 37.3468 3.08165 37.4777 2.89116 37.6764C2.70206 37.8692 2.57346 38.1105 2.50535 38.4002C2.39553 38.8673 2.46951 39.2839 2.72728 39.6499C2.98504 40.0159 3.38648 40.2628 3.93159 40.3904C4.4767 40.518 4.94625 40.4751 5.34024 40.2617C5.73423 40.0482 5.98613 39.7079 6.09595 39.2408C6.16406 38.9511 6.15639 38.6779 6.07293 38.4213C5.99087 38.1588 5.83408 37.935 5.60257 37.7498L5.99456 36.0823C6.62832 36.4179 7.07887 36.8945 7.34621 37.5123C7.60763 38.1287 7.65146 38.8065 7.4777 39.5456C7.33592 40.1487 7.07541 40.6585 6.69619 41.0751C6.31243 41.4843 5.84931 41.7658 5.30683 41.9195C4.76434 42.0732 4.185 42.0779 3.56879 41.9336Z" fill="#3F415A"/>
<path d="M9.70648 32.4721L6.96502 32.8079L6.82569 33.1545L9.07098 34.0533L8.48985 35.4991L2.54195 33.1184L3.51729 30.6917C3.70534 30.2238 3.94697 29.8592 4.24218 29.5978C4.53966 29.3308 4.86529 29.1732 5.21907 29.1251C5.5672 29.0747 5.91636 29.1195 6.26657 29.2597C6.66197 29.418 6.96969 29.672 7.18974 30.0218C7.41205 30.366 7.50093 30.7812 7.4564 31.2672L10.3624 30.8402L9.70648 32.4721ZM5.80048 32.7442L6.16071 31.8479C6.2672 31.583 6.28154 31.3597 6.20373 31.178C6.12819 30.9908 5.9718 30.8496 5.73456 30.7547C5.50862 30.6642 5.3035 30.6607 5.11921 30.7439C4.93719 30.8216 4.79293 30.9929 4.68645 31.2578L4.32621 32.1541L5.80048 32.7442Z" fill="#3F415A"/>
<path d="M12.0995 27.8256C11.795 28.3444 11.3943 28.7507 10.8974 29.0445C10.4036 29.333 9.86602 29.4797 9.28469 29.4848C8.70117 29.4815 8.13897 29.3218 7.59809 29.0056C7.0572 28.6895 6.64529 28.2797 6.36233 27.7765C6.08246 27.268 5.94786 26.7282 5.95855 26.1573C5.97231 25.5811 6.13145 25.0336 6.43599 24.5148C6.74053 23.996 7.1397 23.5924 7.63351 23.3039C8.13039 23.0101 8.66642 22.8659 9.2416 22.8714C9.81987 22.8716 10.3794 23.0297 10.9203 23.3459C11.4612 23.6621 11.8758 24.0734 12.164 24.5797C12.4469 25.083 12.583 25.6201 12.5724 26.191C12.5617 26.7619 12.4041 27.3068 12.0995 27.8256ZM10.8707 27.1073C11.1291 26.6671 11.1882 26.23 11.0479 25.7961C10.9107 25.3569 10.6006 24.9961 10.1174 24.7137C9.62908 24.4282 9.16204 24.3347 8.71634 24.4331C8.26846 24.5232 7.91532 24.7884 7.65692 25.2286C7.39545 25.674 7.33068 26.1148 7.46262 26.5509C7.59763 26.9817 7.91195 27.3415 8.40558 27.63C8.89395 27.9155 9.36207 28.0132 9.80995 27.9231C10.2557 27.8247 10.6092 27.5527 10.8707 27.1073Z" fill="#3F415A"/>
<path d="M14.3798 22.1814L15.6422 20.576L16.5902 21.3184L14.3641 24.1493L9.32259 20.2011L10.2863 18.9756L14.3798 22.1814Z" fill="#3F415A"/>
<path d="M17.1712 18.939L18.5853 17.4649L19.4557 18.2965L16.9621 20.8959L12.3329 16.4734L13.4124 15.3481L17.1712 18.939Z" fill="#3F415A"/>
<path d="M30.6191 10.6956C30.1953 10.8953 29.7831 11.0055 29.3825 11.0264C28.9818 11.0473 28.616 10.9712 28.285 10.798C27.9596 10.6222 27.7017 10.3475 27.5114 9.97371L29.0138 9.2658C29.1372 9.46961 29.2894 9.59937 29.4706 9.65506C29.6491 9.70526 29.8402 9.68238 30.0438 9.58644C30.253 9.4879 30.396 9.36343 30.4729 9.21301C30.5472 9.05711 30.5441 8.89403 30.4635 8.72378C30.3959 8.58099 30.2905 8.48625 30.1473 8.43956C30.0096 8.39028 29.8549 8.36914 29.6832 8.37615C29.517 8.38056 29.2864 8.40527 28.9914 8.45025C28.5626 8.51125 28.2026 8.53984 27.9114 8.53601C27.6202 8.53218 27.336 8.45787 27.0589 8.31308C26.7817 8.1683 26.5574 7.91467 26.3859 7.5522C26.1313 7.01398 26.1278 6.50179 26.3757 6.01561C26.6209 5.52395 27.0572 5.13032 27.6846 4.8347C28.323 4.5339 28.9103 4.44523 29.4465 4.56867C29.9802 4.68662 30.3894 5.01096 30.6742 5.54171L29.147 6.26129C29.0476 6.07975 28.91 5.96663 28.734 5.92192C28.5555 5.87172 28.3672 5.8933 28.169 5.98665C27.9984 6.06703 27.8829 6.17854 27.8225 6.32118C27.7596 6.45832 27.7683 6.61201 27.8489 6.78227C27.9372 6.96899 28.0941 7.07304 28.3196 7.09441C28.5451 7.11578 28.8735 7.09871 29.3049 7.04321C29.7389 6.99319 30.0988 6.9714 30.3845 6.97782C30.6757 6.98165 30.9586 7.05321 31.2331 7.1925C31.5077 7.3318 31.7268 7.57444 31.8905 7.92044C32.0464 8.24996 32.1027 8.58947 32.0594 8.93896C32.0216 9.28586 31.8808 9.61415 31.637 9.92381C31.3932 10.2335 31.0539 10.4907 30.6191 10.6956Z" fill="#3F415A"/>
<path d="M32.3202 6.24074C32.1385 5.63569 32.1081 5.05832 32.2289 4.50862C32.348 3.95311 32.6014 3.47471 32.9892 3.07344C33.3811 2.66461 33.8743 2.37127 34.469 2.19345C35.1977 1.97552 35.8791 1.98096 36.5133 2.20977C37.1474 2.43859 37.6515 2.85845 38.0256 3.46938L36.3816 3.96102C36.1823 3.74165 35.9489 3.59906 35.6813 3.53324C35.4196 3.46568 35.1459 3.47461 34.8603 3.56004C34.3997 3.69777 34.0746 3.96934 33.8851 4.37474C33.6955 4.78015 33.6811 5.25047 33.8418 5.78571C34.0025 6.32095 34.2738 6.70584 34.6555 6.9404C35.0372 7.17495 35.4584 7.22336 35.919 7.08563C36.2046 7.0002 36.4381 6.85746 36.6195 6.6574C36.8067 6.4556 36.923 6.2084 36.9686 5.9158L38.6126 5.42416C38.6369 6.13969 38.4472 6.76703 38.0437 7.30617C37.6384 7.83949 37.0714 8.21511 36.3426 8.43304C35.748 8.61087 35.1752 8.63949 34.6244 8.5189C34.0777 8.39076 33.6024 8.13029 33.1985 7.7375C32.7947 7.34471 32.5019 6.84579 32.3202 6.24074Z" fill="#3F415A"/>
<path d="M43.749 6.79818L42.0945 4.59103L41.7238 4.64266L42.0582 7.03367L40.5122 7.24901L39.6263 0.915109L42.2212 0.553685C42.7214 0.484002 43.1586 0.512033 43.5326 0.637778C43.9126 0.762682 44.2115 0.966346 44.4292 1.24877C44.646 1.52518 44.7805 1.84985 44.8327 2.22279C44.8916 2.64384 44.8236 3.03658 44.6288 3.40099C44.44 3.76456 44.1232 4.04785 43.6784 4.25084L45.4939 6.55513L43.749 6.79818ZM41.5711 3.55092L42.5295 3.41744C42.8128 3.37798 43.0141 3.27942 43.1334 3.12176C43.2587 2.96327 43.3037 2.7577 43.2683 2.50507C43.2347 2.26446 43.1359 2.08506 42.9718 1.96686C42.8139 1.84783 42.5932 1.80804 42.3099 1.84749L41.3516 1.98098L41.5711 3.55092Z" fill="#3F415A"/>
<path d="M49.1076 6.54999C48.5051 6.54303 47.953 6.39695 47.4511 6.11175C46.9553 5.82663 46.5612 5.43335 46.2688 4.93192C45.9826 4.42448 45.8431 3.85801 45.8503 3.23249C45.8576 2.60697 46.0102 2.0469 46.308 1.55229C46.612 1.05775 47.0151 0.673687 47.5174 0.400096C48.0257 0.126575 48.5811 -0.00670346 49.1836 0.000259264C49.7861 0.00722199 50.3352 0.153266 50.831 0.438391C51.3328 0.723587 51.7239 1.11683 52.0041 1.61812C52.2904 2.11948 52.43 2.68292 52.4227 3.30844C52.4155 3.93396 52.2628 4.49706 51.9649 4.99775C51.667 5.49236 51.2669 5.87646 50.7647 6.15005C50.2624 6.42364 49.7101 6.55695 49.1076 6.54999ZM49.1241 5.12891C49.6353 5.13482 50.045 4.96948 50.3532 4.63291C50.6675 4.29641 50.8279 3.8488 50.8344 3.29009C50.8409 2.7253 50.691 2.2741 50.3845 1.9365C50.0842 1.5929 49.6784 1.41814 49.1672 1.41223C48.6499 1.40625 48.2342 1.56848 47.9199 1.89891C47.6118 2.22941 47.4544 2.68009 47.4478 3.25095C47.4412 3.81574 47.5881 4.26993 47.8884 4.61354C48.1949 4.95114 48.6068 5.12293 49.1241 5.12891Z" fill="#3F415A"/>
<path d="M55.2163 5.72463L57.2393 6.02222L57.0635 7.2119L53.4962 6.68714L54.4307 0.360204L55.9751 0.587381L55.2163 5.72463Z" fill="#3F415A"/>
<path d="M59.4143 6.5325L61.3978 7.02877L61.1048 8.1952L57.6071 7.32009L59.1656 1.11678L60.6798 1.49563L59.4143 6.5325Z" fill="#3F415A"/>
<path d="M73.2759 14.1536C72.893 13.8841 72.5937 13.5805 72.378 13.2429C72.1623 12.9053 72.0484 12.5501 72.0363 12.1774C72.0291 11.8082 72.1416 11.4489 72.3736 11.0994L73.7314 12.0551C73.6145 12.2626 73.5764 12.4588 73.6171 12.6435C73.6613 12.8233 73.7755 12.9779 73.9595 13.1075C74.1485 13.2405 74.3275 13.3033 74.4965 13.2959C74.6691 13.2836 74.8097 13.2005 74.9185 13.0467C75.0097 12.9176 75.0403 12.7794 75.0104 12.632C74.9855 12.4882 74.9277 12.3434 74.837 12.1978C74.7512 12.0557 74.616 11.8676 74.4314 11.6336C74.1669 11.2914 73.9645 10.9929 73.8243 10.7381C73.6841 10.4834 73.6088 10.2 73.5985 9.88799C73.5881 9.57598 73.6987 9.2562 73.9302 8.92863C74.274 8.44224 74.7189 8.18683 75.2649 8.16239C75.8145 8.133 76.3727 8.31782 76.9397 8.71688C77.5166 9.12294 77.8834 9.58921 78.0401 10.1157C78.2002 10.6372 78.1191 11.1524 77.7967 11.6612L76.4166 10.6898C76.5259 10.5141 76.5567 10.3388 76.509 10.164C76.4648 9.98422 76.3531 9.83132 76.1741 9.7053C76.0199 9.59679 75.8658 9.55146 75.7116 9.56932C75.561 9.58222 75.4313 9.6656 75.3226 9.81946C75.2033 9.98821 75.1899 10.1757 75.2824 10.3821C75.3749 10.5884 75.5517 10.8651 75.8127 11.2124C76.0702 11.5646 76.2666 11.8663 76.4018 12.1175C76.542 12.3723 76.619 12.6532 76.6329 12.9602C76.6468 13.2672 76.5432 13.5771 76.3222 13.8898C76.1118 14.1876 75.8435 14.4038 75.5174 14.5385C75.1964 14.6767 74.8407 14.7162 74.4506 14.6571C74.0604 14.598 73.6688 14.4302 73.2759 14.1536Z" fill="#3F415A"/>
<path d="M78.0799 13.5112C78.5176 13.0549 79.0058 12.7436 79.5445 12.5772C80.0874 12.4065 80.6294 12.3904 81.1705 12.529C81.7202 12.6674 82.2193 12.9507 82.6677 13.3791C83.2172 13.9041 83.5487 14.4983 83.6622 15.1616C83.7757 15.825 83.6585 16.4697 83.3106 17.0958L82.0709 15.9115C82.1637 15.6302 82.1728 15.3573 82.0982 15.0926C82.0279 14.8321 81.8851 14.5989 81.6697 14.3931C81.3224 14.0613 80.9253 13.9132 80.4784 13.9487C80.0315 13.9842 79.6145 14.2037 79.2273 14.6074C78.8401 15.011 78.6385 15.4363 78.6224 15.8834C78.6063 16.3305 78.772 16.7199 79.1193 17.0517C79.3347 17.2575 79.5743 17.3898 79.8382 17.4485C80.1064 17.5114 80.3793 17.4904 80.6568 17.3856L81.8965 18.5699C81.2849 18.9441 80.6445 19.089 79.9755 19.0048C79.3107 18.9161 78.7035 18.6093 78.154 18.0843C77.7055 17.656 77.398 17.173 77.2313 16.6353C77.0732 16.0975 77.0657 15.5565 77.2087 15.0121C77.3518 14.4677 77.6422 13.9674 78.0799 13.5112Z" fill="#3F415A"/>
<path d="M83.1545 23.6068L84.2533 21.078L84.0244 20.7825L82.1104 22.259L81.1557 21.0265L86.2259 17.1151L87.8283 19.1837C88.1372 19.5825 88.3298 19.9752 88.4061 20.3616C88.4861 20.7528 88.4572 21.1128 88.3196 21.4416C88.1868 21.7667 87.9711 22.0443 87.6726 22.2746C87.3356 22.5347 86.9602 22.6707 86.5465 22.6828C86.1365 22.6997 85.7328 22.5659 85.3354 22.2813L84.2321 24.9979L83.1545 23.6068ZM84.8983 20.1083L85.4901 20.8723C85.6651 21.0982 85.8507 21.2236 86.0471 21.2487C86.2472 21.2786 86.4483 21.2155 86.6506 21.0595C86.8432 20.9109 86.9502 20.7363 86.9716 20.5355C86.9967 20.3396 86.9218 20.1287 86.7469 19.9028L86.155 19.1388L84.8983 20.1083Z" fill="#3F415A"/>
<path d="M86.0589 28.1852C85.766 27.6598 85.619 27.109 85.618 26.5326C85.62 25.9616 85.7665 25.425 86.0576 24.9228C86.3569 24.4229 86.7805 24.0209 87.3282 23.7167C87.876 23.4126 88.4389 23.2668 89.0171 23.2793C89.5981 23.2972 90.1323 23.4558 90.6196 23.7552C91.1099 24.0598 91.5015 24.4748 91.7944 25.0002C92.0874 25.5256 92.2329 26.0739 92.2309 26.6449C92.2319 27.2212 92.0839 27.7552 91.7869 28.2468C91.4929 28.7437 91.072 29.1442 90.5242 29.4484C89.9765 29.7526 89.4109 29.8998 88.8274 29.8902C88.2493 29.8776 87.7166 29.7217 87.2293 29.4223C86.742 29.123 86.3519 28.7106 86.0589 28.1852ZM87.3033 27.4942C87.5519 27.94 87.8991 28.2129 88.3449 28.3128C88.7936 28.4181 89.2626 28.3349 89.7519 28.0632C90.2464 27.7886 90.5645 27.4347 90.7061 27.0016C90.8559 26.5709 90.8066 26.1326 90.558 25.6869C90.3065 25.2358 89.959 24.9561 89.5156 24.8478C89.0751 24.7449 88.6049 24.8322 88.105 25.1098C87.6105 25.3845 87.2882 25.7372 87.1384 26.1679C86.9968 26.601 87.0518 27.0431 87.3033 27.4942Z" fill="#3F415A"/>
<path d="M89.7056 32.8707L90.4526 34.7704L89.3309 35.2097L88.0136 31.8599L93.9792 29.5236L94.5495 30.9738L89.7056 32.8707Z" fill="#3F415A"/>
<path d="M91.1312 37.0648L91.681 39.0303L90.5204 39.3537L89.5508 35.8877L95.7234 34.1682L96.1431 35.6686L91.1312 37.0648Z" fill="#3F415A"/>
</svg>
